<svg xmlns="http://www.w3.org/2000/svg" viewBox="0 0 500 400" width="90%" height="80%" fill="#ffffff">
  <path d="M437.511,468.521c-17.121,-0 -31,-13.879 -31,-31c0,-17.121 13.879,-31 31,-31c17.121,-0 31,13.879 31,31c0,17.121 -13.879,31 -31,31m23.915,-463.762c-23.348,-9.672 -50.226,-4.327 -68.096,13.544l-143.331,143.329l-143.33,-143.329c-17.871,-17.871 -44.747,-23.216 -68.096,-13.544c-23.349,9.671 -38.574,32.455 -38.574,57.729l0,375.026c0,34.51 27.977,62.486 62.487,62.486c34.51,-0 62.486,-27.976 62.486,-62.486l0,-224.173l80.843,80.844c24.404,24.402 63.965,24.402 88.369,-0l80.843,-80.844l0,224.173c0,34.51 27.976,62.486 62.486,62.486c34.51,-0 62.486,-27.976 62.486,-62.486l0,-375.026c0,-25.274 -15.224,-48.058 -38.573,-57.729"/>
</svg>
