<?xml version="1.0" standalone="no"?>
<!DOCTYPE svg PUBLIC "-//W3C//DTD SVG 20010904//EN"
 "http://www.w3.org/TR/2001/REC-SVG-20010904/DTD/svg10.dtd">
<svg version="1.0" xmlns="http://www.w3.org/2000/svg"
 width="400.000000pt" height="400.000000pt" viewBox="0 0 400.000000 400.000000"
 preserveAspectRatio="xMidYMid meet">

<g transform="translate(0.000000,400.000000) scale(0.100000,-0.100000)"
fill="#000000" stroke="none">
<path d="M0 2000 l0 -2000 2000 0 2000 0 0 2000 0 2000 -2000 0 -2000 0 0
-2000z m2374 1518 c127 -322 134 -347 149 -494 l14 -141 -28 -84 c-15 -46 -28
-92 -28 -102 -1 -10 -5 -17 -10 -15 -18 6 -111 131 -111 148 0 9 11 73 25 142
l26 126 -45 148 c-25 82 -45 146 -45 143 -1 -3 -35 -95 -76 -204 -41 -110 -75
-204 -75 -209 0 -8 41 -60 232 -298 31 -40 61 -89 67 -112 35 -126 52 -199 48
-203 -3 -2 -83 30 -180 72 -97 41 -182 75 -191 75 -21 0 -89 -28 -251 -103
-342 -159 -389 -177 -454 -177 l-61 0 0 34 c0 30 -4 36 -42 51 l-42 17 59 57
c33 31 81 75 108 97 l47 40 25 124 c21 110 27 128 53 150 16 14 53 45 82 70
230 196 235 200 267 200 17 0 38 3 47 6 14 5 16 -4 16 -57 l0 -64 26 45 c14
25 77 144 139 265 145 280 169 325 175 325 3 0 18 -33 34 -72z m-774 -198 c36
-30 67 -57 70 -61 3 -3 30 -27 60 -53 30 -27 70 -62 88 -78 l33 -31 -23 -25
c-13 -13 -45 -42 -73 -62 -27 -21 -70 -57 -95 -79 -24 -22 -47 -37 -51 -33 -7
7 -109 467 -109 491 0 16 3 14 100 -69z m1042 -647 c59 -90 71 -116 132 -306
37 -115 66 -210 64 -212 -2 -2 -35 23 -73 55 -39 33 -73 60 -78 60 -4 0 -5
-10 -2 -22 3 -13 11 -61 19 -107 l14 -85 -96 -185 c-53 -102 -114 -223 -136
-268 -22 -46 -42 -83 -46 -83 -3 0 -47 42 -99 94 l-93 93 40 144 c22 79 43
160 47 179 17 81 15 80 97 64 40 -8 74 -14 76 -14 8 0 -4 24 -43 85 -25 39
-45 73 -45 77 0 3 30 9 68 13 37 4 79 10 93 13 l27 7 -49 160 c-27 88 -49 169
-49 181 0 17 19 80 45 152 7 20 17 10 87 -95z m-351 -276 c80 -35 158 -67 173
-71 40 -10 29 -15 -53 -25 -40 -5 -75 -12 -78 -15 -3 -3 11 -31 31 -63 36 -58
37 -58 13 -61 -13 -2 -104 13 -202 32 l-178 35 -201 -70 c-110 -39 -216 -76
-234 -82 -26 -8 -52 -7 -125 8 -135 27 -131 24 -101 63 25 31 27 32 104 32 69
0 88 4 157 36 43 20 152 69 243 109 91 40 194 87 230 104 36 17 67 31 70 31 3
0 71 -29 151 -63z m-963 -158 c2 -18 -8 -36 -34 -62 -21 -20 -41 -37 -45 -37
-9 0 -89 90 -89 100 0 5 19 19 42 33 41 24 43 24 82 7 30 -12 42 -23 44 -41z
m782 -84 c152 -26 190 -36 190 -48 0 -32 -104 -384 -119 -400 -8 -11 -52 -43
-96 -72 -44 -30 -131 -89 -192 -132 -244 -169 -293 -202 -293 -197 0 2 36 79
80 171 44 91 79 168 77 170 -3 2 -28 -5 -58 -16 -29 -11 -54 -19 -56 -18 -1 2
50 61 113 132 181 204 169 183 155 268 -8 45 -19 80 -32 93 l-20 22 43 15 c66
24 71 25 98 26 14 1 63 -6 110 -14z m689 -365 c12 -113 23 -234 26 -270 l6
-65 -78 -112 c-43 -61 -109 -157 -146 -212 -61 -91 -75 -105 -140 -142 -40
-23 -101 -61 -137 -84 -36 -23 -87 -54 -113 -68 -26 -15 -60 -35 -75 -44 -23
-15 66 96 151 189 93 101 95 106 142 307 42 179 49 199 116 328 40 76 104 201
142 277 55 108 72 135 78 120 4 -10 17 -111 28 -224z m-485 -220 c50 -51 85
-95 80 -99 -5 -5 -92 -64 -194 -132 -102 -67 -232 -155 -290 -193 l-105 -71
-106 -208 c-58 -114 -110 -212 -116 -218 -7 -7 -22 35 -47 135 -20 80 -36 153
-36 162 0 15 93 174 125 214 7 8 24 35 37 60 52 92 62 106 107 136 131 87 380
260 404 281 16 12 34 23 41 23 6 0 52 -41 100 -90z m81 -212 c-7 -29 -23 -96
-35 -148 -22 -94 -32 -112 -94 -180 -17 -19 -60 -69 -95 -110 -78 -91 -157
-177 -232 -250 -31 -30 -102 -103 -157 -161 l-100 -106 -6 41 c-3 23 -8 84
-11 136 l-6 95 94 183 94 183 134 89 c74 49 154 102 179 120 108 75 236 159
242 159 3 1 0 -23 -7 -51z"/>
<path d="M1975 2678 c-185 -51 -168 -42 -229 -118 -31 -39 -56 -73 -56 -75 0
-3 17 6 38 19 21 13 67 32 102 42 48 13 80 31 130 72 73 61 96 83 90 81 -3 -1
-36 -10 -75 -21z"/>
</g>
</svg>
